<svg width="34" height="34" viewBox="0 0 34 34" fill="none" xmlns="http://www.w3.org/2000/svg">
<path d="M27.2151 21.9348V12.0654C27.2151 10.4086 25.8719 9.06543 24.2151 9.06543H9.78516C8.1283 9.06543 6.78516 10.4086 6.78516 12.0654V21.9348C6.78516 23.5917 8.1283 24.9348 9.78515 24.9348H24.2151C25.8719 24.9348 27.2151 23.5917 27.2151 21.9348Z" stroke="white" stroke-width="3" stroke-linecap="round" stroke-linejoin="round"/>
<path d="M16.3362 17.5443L15.3404 18.6661L16.3362 17.5443ZM25.2462 10.8133L24.2504 9.69151L25.2462 10.8133ZM17.332 16.4225L9.74984 9.69151L7.75819 11.935L15.3404 18.6661L17.332 16.4225ZM9.4179 10.5654H24.5823V7.56543H9.4179V10.5654ZM18.6598 18.6661L26.242 11.935L24.2504 9.69151L16.6682 16.4225L18.6598 18.6661ZM15.3404 18.6661C16.2872 19.5066 17.713 19.5066 18.6598 18.6661L16.6682 16.4225C16.8575 16.2544 17.1427 16.2544 17.332 16.4225L15.3404 18.6661ZM24.5823 10.5654C24.1224 10.5654 23.9064 9.99684 24.2504 9.69151L26.242 11.935C27.9617 10.4084 26.8819 7.56543 24.5823 7.56543V10.5654ZM9.74984 9.69151C10.0938 9.99685 9.87781 10.5654 9.4179 10.5654V7.56543C7.11832 7.56543 6.03847 10.4084 7.75819 11.935L9.74984 9.69151Z" fill="white"/>
</svg>
