<svg width="34" height="34" viewBox="0 0 34 34" fill="none" xmlns="http://www.w3.org/2000/svg">
<path d="M27.2148 21.9348V12.0654C27.2148 10.4086 25.8717 9.06543 24.2148 9.06543H9.78491C8.12806 9.06543 6.78491 10.4086 6.78491 12.0654V21.9348C6.78491 23.5917 8.12805 24.9348 9.78491 24.9348H24.2148C25.8717 24.9348 27.2148 23.5917 27.2148 21.9348Z" stroke="#29313C" stroke-width="3" stroke-linecap="round" stroke-linejoin="round"/>
<path d="M16.336 17.5443L15.3402 18.6661L16.336 17.5443ZM25.246 10.8133L24.2501 9.69151L25.246 10.8133ZM17.3318 16.4225L9.7496 9.69151L7.75794 11.935L15.3402 18.6661L17.3318 16.4225ZM9.41765 10.5654H24.5821V7.56543H9.41765V10.5654ZM18.6596 18.6661L26.2418 11.935L24.2501 9.69151L16.6679 16.4225L18.6596 18.6661ZM15.3402 18.6661C16.287 19.5066 17.7127 19.5066 18.6596 18.6661L16.6679 16.4225C16.8573 16.2544 17.1424 16.2544 17.3318 16.4225L15.3402 18.6661ZM24.5821 10.5654C24.1222 10.5654 23.9062 9.99684 24.2501 9.69151L26.2418 11.935C27.9615 10.4084 26.8817 7.56543 24.5821 7.56543V10.5654ZM9.7496 9.69151C10.0935 9.99685 9.87756 10.5654 9.41765 10.5654V7.56543C7.11808 7.56543 6.03823 10.4084 7.75794 11.935L9.7496 9.69151Z" fill="#29313C"/>
</svg>
