<svg width="40" height="40" viewBox="0 0 40 40" fill="none" xmlns="http://www.w3.org/2000/svg">
<path d="M20 0C8.97205 0 0 8.97205 0 20C0 31.0271 8.97205 40 20 40C31.0271 40 40 31.0271 40 20C40 8.97205 31.0288 0 20 0ZM24.9738 20.7041H21.72C21.72 25.9027 21.72 32.3016 21.72 32.3016H16.8984C16.8984 32.3016 16.8984 25.9647 16.8984 20.7041H14.6065V16.6052H16.8984V13.9539C16.8984 12.0551 17.8007 9.08805 21.7643 9.08805L25.3371 9.10175V13.0806C25.3371 13.0806 23.166 13.0806 22.7439 13.0806C22.3218 13.0806 21.7216 13.2917 21.7216 14.1972V16.606H25.3952L24.9738 20.7041Z" fill="#29313C"/>
</svg>
