<svg width="40" height="40" viewBox="0 0 40 40" fill="none" xmlns="http://www.w3.org/2000/svg">
<path d="M19.9993 24.0038C22.2059 24.0038 24.0048 22.2081 24.0048 20C24.0048 19.1283 23.7196 18.3235 23.2475 17.6661C22.5201 16.6575 21.3374 15.9961 20.0017 15.9961C18.6652 15.9961 17.4834 16.6567 16.7543 17.6653C16.2806 18.3227 15.9979 19.1275 15.9971 19.9992C15.9947 22.2073 17.792 24.0038 19.9993 24.0038Z" fill="#29313C"/>
<path d="M28.7424 15.1019V11.7457V11.2462L28.2405 11.2478L24.886 11.2583L24.8989 15.1147L28.7424 15.1019Z" fill="#29313C"/>
<path d="M20 0C8.97205 0 0 8.97205 0 20C0 31.0271 8.97205 40 20 40C31.0271 40 40 31.0271 40 20C40 8.97205 31.0288 0 20 0ZM31.3744 17.6662V26.979C31.3744 29.4047 29.4022 31.376 26.9782 31.376H13.0218C10.597 31.376 8.62563 29.4047 8.62563 26.979V17.6662V13.0226C8.62563 10.5978 10.597 8.62644 13.0218 8.62644H26.9774C29.4022 8.62644 31.3744 10.5978 31.3744 13.0226V17.6662Z" fill="#29313C"/>
<path d="M26.2217 20C26.2217 23.4294 23.4311 26.2217 20 26.2217C16.5689 26.2217 13.7791 23.4294 13.7791 20C13.7791 19.175 13.9435 18.3864 14.2367 17.6661H10.8411V26.979C10.8411 28.1825 11.8183 29.1573 13.021 29.1573H26.9766C28.1777 29.1573 29.1565 28.1825 29.1565 26.979V17.6661H25.7593C26.055 18.3864 26.2217 19.175 26.2217 20Z" fill="#29313C"/>
</svg>
