<svg width="20" height="20" viewBox="0 0 20 20" fill="none" xmlns="http://www.w3.org/2000/svg">
<path d="M14.6875 0.666504C13.6022 0.666504 12.6072 1.03009 11.7302 1.74719C10.8894 2.43468 10.3296 3.31032 10 3.94705C9.67043 3.31028 9.11063 2.43468 8.2698 1.74719C7.39277 1.03009 6.39777 0.666504 5.3125 0.666504C2.28391 0.666504 0 3.2855 0 6.75853C0 10.5106 2.84934 13.0777 7.16285 16.964C7.89535 17.624 8.72563 18.3721 9.58859 19.1699C9.70234 19.2752 9.84844 19.3332 10 19.3332C10.1516 19.3332 10.2977 19.2752 10.4114 19.1699C11.2745 18.372 12.1047 17.624 12.8376 16.9636C17.1507 13.0777 20 10.5106 20 6.75853C20 3.2855 17.7161 0.666504 14.6875 0.666504Z" fill="#FF6E6E"/>
</svg>
