<svg width="91" height="15" viewBox="0 0 91 15" fill="none" xmlns="http://www.w3.org/2000/svg">
<path d="M7.49998 0.367188L9.81734 5.06322L15 5.81623L11.25 9.47156L12.135 14.6331L7.49998 12.1962L2.8647 14.6331L3.75001 9.47156L0 5.81623L5.18234 5.06322L7.49998 0.367188Z" fill="#FFD641"/>
<path d="M26.5 0.367188L28.8173 5.06322L34 5.81623L30.25 9.47156L31.135 14.6331L26.5 12.1962L21.8647 14.6331L22.75 9.47156L19 5.81623L24.1823 5.06322L26.5 0.367188Z" fill="#FFD641"/>
<path d="M45.5 0.367188L47.8173 5.06322L53 5.81623L49.25 9.47156L50.135 14.6331L45.5 12.1962L40.8647 14.6331L41.75 9.47156L38 5.81623L43.1823 5.06322L45.5 0.367188Z" fill="#FFD641"/>
<path d="M64.5 0.367188L66.8173 5.06322L72 5.81623L68.25 9.47156L69.135 14.6331L64.5 12.1962L59.8647 14.6331L60.75 9.47156L57 5.81623L62.1823 5.06322L64.5 0.367188Z" fill="#FFD641"/>
<path d="M83.5 0.367188L85.8173 5.06322L91 5.81623L87.25 9.47156L88.135 14.6331L83.5 12.1962L78.8647 14.6331L79.75 9.47156L76 5.81623L81.1823 5.06322L83.5 0.367188Z" fill="#DFDFDF"/>
</svg>
