<svg width="40" height="40" viewBox="0 0 40 40" fill="none" xmlns="http://www.w3.org/2000/svg">
<path d="M20 0C8.97205 0 0 8.97205 0 20C0 31.0271 8.97205 40 20 40C31.0271 40 40 31.0271 40 20C40 8.97205 31.0288 0 20 0ZM28.9221 15.4225C28.931 15.6207 28.9358 15.8205 28.9358 16.0203C28.9358 22.1034 24.3068 29.1154 15.8374 29.1154C13.2377 29.1154 10.8177 28.3558 8.78112 27.0491C9.14122 27.0918 9.50777 27.1135 9.87916 27.1135C12.0366 27.1135 14.0208 26.3772 15.5966 25.143C13.5825 25.1059 11.8819 23.7751 11.2962 21.9455C11.5766 21.9987 11.8658 22.0285 12.1614 22.0285C12.5812 22.0285 12.9888 21.9737 13.3747 21.8682C11.2688 21.4461 9.68259 19.5859 9.68259 17.3544C9.68259 17.3351 9.68259 17.3149 9.6834 17.2964C10.3037 17.6404 11.0135 17.8482 11.7675 17.8716C10.5333 17.0475 9.72045 15.6376 9.72045 14.0409C9.72045 13.1966 9.94683 12.4055 10.3432 11.7256C12.6126 14.5114 16.0058 16.3433 19.8308 16.5367C19.7519 16.1991 19.7124 15.8487 19.7124 15.487C19.7124 12.9453 21.7731 10.8838 24.3148 10.8838C25.6392 10.8838 26.834 11.4428 27.675 12.3371C28.7247 12.1308 29.7076 11.749 30.5994 11.2197C30.253 12.2952 29.5255 13.1966 28.5725 13.767C29.5046 13.6558 30.3939 13.4093 31.2165 13.0428C30.6026 13.9644 29.822 14.7756 28.9221 15.4225Z" fill="#29313C"/>
</svg>
